<svg width="118" height="30" viewBox="0 0 118 30" fill="none" xmlns="http://www.w3.org/2000/svg">
<path d="M0.0991211 23.7031L1.96631 4.76392H7.80373L7.52463 7.65315H10.5043L10.064 12.0283H7.07258L6.34536 19.3241H9.2621L8.86901 23.7031H0.0991211Z" fill="black"/>
<path d="M10.4885 23.7344L12.3714 4.74809H10.8973L11.3219 0.424072H18.6531L17.914 7.6727H26.6721L24.4669 29.5915H18.6295L20.4102 12.036H17.407L16.2513 23.7423L10.4885 23.7344Z" fill="black"/>
<path d="M42.7929 7.67285L41.1891 23.711H35.3674L36.5467 12.0205H33.5906L32.4389 23.6953H26.6604L28.2328 7.67285H42.7929Z" fill="black"/>
<path d="M42.7966 23.7344L44.6756 4.74809H43.2015L43.626 0.424072H50.9533L49.6404 13.5691L53.1271 7.6727H58.9763L55.4188 13.5258H58.3945L56.7828 29.5837H50.9376L52.1168 17.9088H49.1254L48.5554 23.7344H42.7966Z" fill="black"/>
<path d="M58.9646 23.7031L60.8318 4.76392H66.6692L66.3901 7.65315H69.3658L68.9295 12.0283H65.9381L65.2069 19.3241H68.1276L67.7345 23.7031H58.9646Z" fill="black"/>
<path d="M85.4786 7.67285L85.0423 12.0676L82.9667 17.8933H77.145L79.2323 12.0401H76.2959L75.5687 19.3202H84.3229L83.8708 23.7149H69.3264L70.9342 7.67285H85.4786Z" fill="black"/>
<path d="M101.702 7.67285L101.12 13.467H95.2234L95.3689 12.0519H92.4679L91.7367 19.332H94.6535L94.8146 17.8579H100.68L100.066 23.7228H85.4905L87.0825 7.67285H101.702Z" fill="black"/>
<path d="M101.717 23.7344L103.6 4.74809H102.126L102.551 0.424072H109.874L109.143 7.6727H117.901L115.696 29.5915H109.85L111.631 12.036H108.632L107.492 23.7344H101.717Z" fill="black"/>
<path d="M34.6754 1.13965L34.2273 5.61696H28.5432L28.9874 1.13965H34.6754Z" fill="#0864B7"/>
</svg>
