<svg width="174" height="143" viewBox="0 0 174 143" fill="none" xmlns="http://www.w3.org/2000/svg">
<path d="M43.2019 62.4715L44.5903 48.3885H48.9309L48.7234 50.537H50.939L50.6116 53.7902H48.3872L47.8465 59.2153H50.0153L49.7231 62.4715H43.2019Z" fill="black"/>
<path d="M50.9273 62.4949L52.3274 48.3768H51.2313L51.547 45.1615H56.9984L56.4489 50.5515H62.9613L61.3215 66.8501H56.9808L58.305 53.796H56.0718L55.2124 62.5007L50.9273 62.4949Z" fill="black"/>
<path d="M74.9485 50.5515L73.7559 62.4773H69.427L70.3039 53.7843H68.1058L67.2493 62.4656H62.9525L64.1217 50.5515H74.9485Z" fill="black"/>
<path d="M74.9514 62.4949L76.3486 48.3768H75.2525L75.5682 45.1615H81.0166L80.0403 54.936L82.633 50.5515H86.9825L84.3371 54.9038H86.5499L85.3514 66.8443H81.0049L81.8818 58.163H79.6574L79.2336 62.4949H74.9514Z" fill="black"/>
<path d="M86.9737 62.4715L88.3621 48.3885H92.7028L92.4952 50.537H94.7079L94.3835 53.7902H92.1591L91.6154 59.2153H93.7872L93.4949 62.4715H86.9737Z" fill="black"/>
<path d="M106.689 50.5515L106.365 53.8194L104.821 58.1513H100.493L102.045 53.799H99.8612L99.3204 59.2123H105.83L105.494 62.4803H94.6787L95.8742 50.5515H106.689Z" fill="black"/>
<path d="M118.752 50.5515L118.32 54.86H113.935L114.044 53.8077H111.886L111.343 59.2211H113.512L113.631 58.125H117.993L117.537 62.4861H106.698L107.882 50.5515H118.752Z" fill="black"/>
<path d="M118.764 62.4949L120.164 48.3768H119.068L119.384 45.1615H124.829L124.286 50.5515H130.798L129.158 66.8501H124.812L126.136 53.796H123.906L123.058 62.4949H118.764Z" fill="black"/>
<path d="M68.9125 45.6935L68.5793 49.0228H64.3526L64.6829 45.6935H68.9125Z" fill="#0864B7"/>
</svg>
